<?xml version="1.0" standalone="no"?>
<!DOCTYPE svg PUBLIC "-//W3C//DTD SVG 20010904//EN"
 "http://www.w3.org/TR/2001/REC-SVG-20010904/DTD/svg10.dtd">
<svg version="1.0" xmlns="http://www.w3.org/2000/svg"
 width="90.000000pt" height="90.000000pt" viewBox="0 0 90.000000 90.000000"
 preserveAspectRatio="xMidYMid meet">
<metadata>
Created by potrace 1.14, written by Peter Selinger 2001-2017
</metadata>
<g transform="translate(0.000000,90.000000) scale(0.100000,-0.100000)"
fill="#000000" stroke="none">
<path d="M0 817 l0 -82 85 -54 c141 -91 130 -57 132 -384 1 -155 2 -285 2
-289 1 -5 44 -8 96 -8 l95 0 0 349 0 348 -61 38 c-34 21 -105 67 -158 101 -84
56 -102 64 -143 64 l-48 0 0 -83z"/>
<path d="M459 898 c-1 -2 -3 -150 -4 -331 -1 -225 1 -332 9 -341 6 -8 76 -54
156 -104 80 -50 153 -98 163 -106 20 -19 73 -21 79 -3 5 16 3 176 -3 180 -2 2
-36 23 -74 48 -105 66 -126 85 -134 121 -4 18 -7 147 -6 286 l0 252 -92 0
c-51 0 -94 -1 -94 -2z"/>
</g>
</svg>
