<svg width="152" height="152" viewBox="0 0 152 152" fill="none" xmlns="http://www.w3.org/2000/svg">
<path d="M66.9676 136.459L66.8686 137.75L72.0179 138.144L71.2502 148.152L72.6545 148.26L73.5214 136.96L66.9676 136.459Z" fill="white"/>
<path d="M60.6224 134.907C58.7684 134.446 57.155 135.296 56.4414 136.82L57.7454 137.144C58.271 136.174 59.2996 135.796 60.4308 136.077C61.9548 136.456 62.6469 137.762 62.3143 139.298L62.2869 139.408L56.0652 137.861C56.0025 138.046 55.9398 138.23 55.8967 138.403C55.3683 140.791 56.4888 142.587 58.7513 143.15C61.0137 143.712 62.9685 142.43 63.5754 139.995C64.1862 137.544 63.0262 135.504 60.6224 134.907ZM61.942 140.456C61.4914 141.729 60.1958 142.308 59.0175 142.015C57.682 141.683 56.9312 140.679 57.1501 139.265L61.942 140.456Z" fill="white"/>
<path d="M52.3475 134.536C52.9084 133.192 52.6533 132.332 51.1884 131.722L49.858 131.169L49.3906 132.29L50.6013 132.793C51.259 133.067 51.3835 133.399 51.1155 134.042L49.2395 138.539L47.2663 137.718L46.7989 138.839L48.772 139.66L47.8807 141.796L49.1064 142.306L49.9977 140.169L51.3729 140.741L51.8404 139.621L50.4652 139.049L52.3475 134.536Z" fill="white"/>
<path d="M40.8441 139.306C41.4389 139.635 41.9753 139.47 42.2347 139.003C42.5177 138.493 42.3334 138.058 41.9085 137.823C41.7386 137.729 41.5089 137.675 41.3327 137.726C41.35 137.661 41.3814 137.605 41.4207 137.534C41.688 137.053 42.3249 136.573 43.2392 137.061L43.6086 136.395C42.3466 135.733 41.1951 136.04 40.527 137.243C40.0947 138.021 40.1501 138.922 40.8441 139.306Z" fill="white"/>
<path d="M40.4202 128.915C41.4703 127.436 40.8792 125.756 39.1576 124.49C37.6838 123.406 35.93 123.302 35.0172 124.54C33.9314 126.012 34.9329 127.191 36.3113 128.486C37.1899 129.313 37.827 129.922 37.2889 130.651C36.8372 131.264 35.9229 131.194 34.9969 130.513C34.084 129.842 33.8327 128.873 34.2541 128.138L33.1585 127.333C32.2443 128.79 32.821 130.3 34.3243 131.425C35.8146 132.541 37.5093 132.562 38.4029 131.35C39.4215 129.969 38.4557 128.797 37.1034 127.521C36.1986 126.675 35.5163 126.072 36.1313 125.238C36.5829 124.626 37.5459 124.711 38.485 125.402C39.5936 126.217 39.862 127.299 39.3246 128.109L40.4202 128.915Z" fill="white"/>
<path d="M17.4111 113.357C18.2786 114.548 19.3531 114.868 20.369 114.75C19.7941 115.748 19.9565 116.851 20.6333 117.78C21.3864 118.814 22.3072 119.005 23.0492 119.006L22.2372 119.816L22.914 120.745L29.5939 115.893L28.8122 114.82L25.2889 117.379C23.9529 118.35 22.5499 118.349 21.7491 117.249C21.0055 116.229 21.2576 115.145 22.5674 114.194L26.3527 111.444L25.571 110.371L21.9953 112.968C20.6331 113.958 19.2991 113.887 18.4888 112.774C17.7548 111.767 18.0164 110.696 19.3262 109.745L23.1114 106.995L22.3297 105.922L18.479 108.719C16.3702 110.251 16.4006 111.97 17.4111 113.357Z" fill="white"/>
<path d="M20.1819 100.373C19.3979 98.631 17.732 97.8881 16.0925 98.2689L16.644 99.4943C17.7318 99.3077 18.6652 99.8826 19.1436 100.946C19.7881 102.378 19.189 103.729 17.7762 104.416L17.6728 104.463L15.0417 98.6163C14.8578 98.6811 14.6739 98.7459 14.5114 98.8188C12.3077 99.8788 11.5882 101.87 12.545 103.996C13.5018 106.122 15.7186 106.866 18.0079 105.838C20.3121 104.804 21.1985 102.632 20.1819 100.373ZM16.6353 104.839C15.3562 105.272 14.1001 104.611 13.6018 103.504C13.037 102.249 13.3621 101.038 14.6087 100.337L16.6353 104.839Z" fill="white"/>
<path d="M16.7482 90.0805C16.2866 88.2268 14.7795 87.1998 13.0987 87.2835L13.4234 88.5874C14.5269 88.597 15.343 89.3285 15.6247 90.4596C16.0041 91.9834 15.1743 93.207 13.662 93.6326L13.552 93.6599L12.0028 87.4389C11.8104 87.47 11.6179 87.5011 11.4451 87.544C9.0882 88.196 8.02611 90.0277 8.58943 92.2899C9.15275 94.5521 11.2016 95.6781 13.637 95.0733C16.0881 94.4647 17.3467 92.4841 16.7482 90.0805ZM12.464 93.8466C11.1286 94.0448 10.0102 93.1715 9.7168 91.9933C9.38428 90.658 9.91946 89.5242 11.2708 89.0552L12.464 93.8466Z" fill="white"/>
<path d="M13.2037 82.608C14.6545 82.4729 15.2949 81.8442 15.1474 80.2645L15.0135 78.8299L13.8045 78.9424L13.9264 80.2481C13.9926 80.9573 13.7573 81.2231 13.0642 81.2877L8.21215 81.7395L8.01347 79.6117L6.8045 79.7243L7.00318 81.852L4.69807 82.0667L4.82149 83.3884L7.1266 83.1738L7.26508 84.6568L8.47405 84.5442L8.33558 83.0612L13.2037 82.608Z" fill="white"/>
<path d="M11.2987 60.5146C12.5803 60.8609 13.6429 60.1587 13.9859 58.893C14.3332 57.6118 13.7705 56.4702 12.4889 56.1238C11.2074 55.7774 10.1448 56.4796 9.79748 57.7609C9.45441 59.0266 10.0172 60.1682 11.2987 60.5146Z" fill="white"/>
<path d="M29.6621 36.2809L28.6215 35.5098L25.5411 39.655L17.4765 33.6789L16.6364 34.8094L25.7415 41.5566L29.6621 36.2809Z" fill="white"/>
<path d="M34.3611 31.7505C35.7403 30.4286 35.8806 28.6122 34.9701 27.1976L34 28.1274C34.5417 29.0882 34.3135 30.1591 33.472 30.9656C32.3383 32.0522 30.8624 31.9419 29.7391 30.8433L29.6606 30.7616L34.289 26.3255C34.1661 26.1743 34.0432 26.023 33.9197 25.8946C32.179 24.1769 30.0594 24.1678 28.3763 25.7809C26.6933 27.394 26.737 29.729 28.4759 31.5382C30.2261 33.359 32.5728 33.4644 34.3611 31.7505ZM28.9562 29.9119C28.1185 28.8535 28.3192 27.4502 29.1958 26.6101C30.1892 25.6579 31.4402 25.5577 32.521 26.4952L28.9562 29.9119Z" fill="white"/>
<path d="M39.087 24.9612C39.9275 26.1514 40.7923 26.3939 42.0896 25.4805L43.2677 24.651L42.5673 23.6591L41.4951 24.4141C40.9127 24.8242 40.5647 24.7524 40.1632 24.1837L37.3524 20.2031L39.0997 18.9728L38.3993 17.9809L36.652 19.2112L35.3167 17.3201L34.2312 18.0843L35.5666 19.9755L34.3487 20.8329L35.0491 21.8248L36.2669 20.9673L39.087 24.9612Z" fill="white"/>
<path d="M41.1751 12.7034C40.579 13.0305 40.4335 13.5721 40.691 14.0401C40.972 14.5507 41.439 14.6269 41.8648 14.3932C42.0351 14.2998 42.2026 14.134 42.2537 13.9582C42.2991 14.0072 42.3303 14.0639 42.3693 14.1348C42.6347 14.6171 42.7021 15.4111 41.8015 15.9237L42.1684 16.5904C43.4018 15.8766 43.7559 14.7405 43.0925 13.5349C42.6632 12.7548 41.8705 12.3218 41.1751 12.7034Z" fill="white"/>
<path d="M50.2078 17.8853C50.9014 19.561 52.6402 19.9575 54.6298 19.1776C56.333 18.51 57.3552 17.0833 56.7925 15.652C56.1232 13.9494 54.5911 14.1674 52.7598 14.6419C51.5911 14.9435 50.7357 15.1571 50.404 14.3133C50.1256 13.6052 50.6714 12.8696 51.7416 12.4501C52.7967 12.0365 53.7512 12.3405 54.1496 13.0885L55.4157 12.5922C54.6673 11.0424 53.0813 10.7251 51.327 11.3954C49.5877 12.0598 48.6678 13.4811 49.2187 14.8823C49.8465 16.4794 51.3543 16.2883 53.1555 15.8256C54.3544 15.5122 55.2281 15.2567 55.6071 16.221C55.8855 16.9291 55.3004 17.6975 54.2152 18.1229C52.934 18.6251 51.8745 18.2753 51.4739 17.389L50.2078 17.8853Z" fill="white"/>
<path d="M75.6419 6.73443C74.172 6.83292 73.3291 7.57087 72.8881 8.49284C72.3491 7.47428 71.329 7.02341 70.1821 7.10025C68.906 7.18575 68.2538 7.86226 67.8578 8.48914L67.6041 7.37034L66.4573 7.44718L67.0108 15.6852L68.3354 15.5964L68.0434 11.2513C67.9327 9.60369 68.6805 8.41779 70.0374 8.32688C71.2973 8.24246 72.0807 9.0337 72.1892 10.649L72.5029 15.3172L73.8274 15.2285L73.5311 10.8187C73.4182 9.13879 74.1887 8.04872 75.5618 7.95673C76.8056 7.87339 77.5727 8.66572 77.6813 10.281L77.9949 14.9492L79.3195 14.8605L79.0004 10.1115C78.8257 7.51088 77.3541 6.61971 75.6419 6.73443Z" fill="white"/>
<path d="M85.1685 16.0051C87.0604 16.2705 88.5762 15.257 89.1269 13.6668L87.7963 13.4801C87.3748 14.5 86.3913 14.9832 85.237 14.8213C83.6819 14.6031 82.8573 13.3757 83.0279 11.8139L83.0437 11.7017L89.3925 12.5924C89.4356 12.4023 89.4787 12.2122 89.5036 12.0358C89.78 9.60606 88.4782 7.93577 86.1696 7.61188C83.8609 7.28799 82.0506 8.76691 81.701 11.2518C81.3492 13.7527 82.7156 15.6609 85.1685 16.0051ZM83.2773 10.6228C83.5927 9.31021 84.8208 8.59971 86.0232 8.7684C87.3859 8.95958 88.2374 9.88008 88.1671 11.3088L83.2773 10.6228Z" fill="white"/>
<path d="M95.7189 18.5861C97.5336 19.1831 99.2058 18.455 100.031 16.988L98.7543 16.5681C98.1581 17.4968 97.1042 17.7977 95.9969 17.4334C94.5052 16.9427 93.912 15.5887 94.3579 14.0822L94.3934 13.9746L100.483 15.9779C100.56 15.7985 100.636 15.6191 100.692 15.45C101.396 13.1082 100.412 11.2336 98.1974 10.5051C95.9829 9.77657 93.9381 10.9105 93.152 13.2935C92.3607 15.6919 93.366 17.8121 95.7189 18.5861ZM94.8152 12.9544C95.3592 11.7188 96.6942 11.2377 97.8476 11.6171C99.1548 12.0471 99.829 13.104 99.5056 14.4974L94.8152 12.9544Z" fill="white"/>
<path d="M103.943 19.5687C103.284 20.8681 103.475 21.7447 104.89 22.461L106.176 23.1115L106.725 22.0287L105.555 21.4367C104.92 21.1151 104.82 20.7744 105.135 20.1536L107.34 15.808L109.247 16.7728L109.796 15.69L107.89 14.7252L108.937 12.6607L107.753 12.0614L106.705 14.1259L105.376 13.4535L104.827 14.5363L106.156 15.2087L103.943 19.5687Z" fill="white"/>
<path d="M123.684 29.7229C122.707 30.6218 122.735 31.8938 123.624 32.8576C124.524 33.8332 125.791 33.9652 126.768 33.0664C127.745 32.1676 127.717 30.8955 126.817 29.9199C125.928 28.9561 124.66 28.8241 123.684 29.7229Z" fill="white"/>
<path d="M134.446 58.1504L135.653 57.6821L133.781 52.8688L143.14 49.2397L142.629 47.927L132.063 52.0244L134.446 58.1504Z" fill="white"/>
<path d="M135.786 64.5358C136.171 66.4068 137.635 67.4943 139.318 67.4791L139.047 66.163C137.944 66.1085 137.159 65.3444 136.924 64.2028C136.607 62.6647 137.486 61.4759 139.014 61.1123L139.125 61.0895L140.419 67.3685C140.613 67.3453 140.806 67.3221 140.981 67.2862C143.362 66.7308 144.498 64.9438 144.028 62.6605C143.557 60.3772 141.556 59.1686 139.098 59.6737C136.624 60.182 135.286 62.1098 135.786 64.5358ZM140.22 60.9472C141.562 60.8036 142.644 61.7217 142.889 62.9109C143.167 64.2587 142.586 65.3698 141.216 65.7833L140.22 60.9472Z" fill="white"/>
<path d="M139.022 72.1462C137.567 72.2221 136.901 72.8242 136.984 74.4086L137.059 75.8475L138.272 75.7842L138.203 74.4747C138.166 73.7633 138.412 73.5073 139.107 73.471L143.974 73.2172L144.085 75.3513L145.298 75.288L145.186 73.154L147.498 73.0334L147.429 71.7077L145.117 71.8283L145.039 70.3409L143.826 70.4041L143.904 71.8915L139.022 72.1462Z" fill="white"/>
<path d="M148.289 80.4438C148.329 79.7651 147.948 79.3532 147.415 79.3215C146.833 79.2869 146.52 79.6413 146.491 80.1261C146.48 80.3201 146.531 80.5502 146.652 80.6871C146.587 80.6994 146.522 80.6956 146.441 80.6908C145.892 80.6581 145.184 80.2917 145.229 79.2564L144.47 79.2113C144.417 80.6353 145.191 81.5408 146.564 81.6225C147.453 81.6754 148.242 81.2357 148.289 80.4438Z" fill="white"/>
<path d="M139.095 85.3168C137.308 85.0104 136.046 86.2704 135.646 88.3697C135.304 90.1668 135.967 91.7922 137.478 92.0791C139.275 92.4203 139.907 91.0077 140.481 89.2052C140.848 88.0555 141.123 87.2178 142.013 87.3869C142.761 87.5288 143.093 88.3828 142.878 89.512C142.666 90.6252 141.9 91.2708 141.055 91.2092L140.8 92.5451C142.511 92.738 143.624 91.5652 143.991 89.7234C144.355 87.8975 143.642 86.3614 142.163 86.0806C140.477 85.7605 139.836 87.1383 139.268 88.909C138.895 90.0905 138.646 90.966 137.628 90.7728C136.88 90.6308 136.541 89.7261 136.76 88.5811C137.017 87.2293 137.877 86.5192 138.841 86.6527L139.095 85.3168Z" fill="white"/>
<path d="M134.98 112.761C135.68 111.465 135.505 110.359 134.96 109.495C136.109 109.581 137.035 108.958 137.582 107.947C138.19 106.822 137.965 105.91 137.646 105.241L138.728 105.622L139.274 104.611L132.006 100.693L131.375 101.861L135.209 103.928C136.662 104.711 137.267 105.975 136.621 107.171C136.02 108.282 134.933 108.524 133.508 107.756L129.389 105.536L128.758 106.703L132.648 108.8C134.13 109.599 134.642 110.832 133.988 112.042C133.395 113.139 132.315 113.366 130.89 112.598L126.772 110.378L126.14 111.546L130.33 113.804C132.625 115.041 134.164 114.27 134.98 112.761Z" fill="white"/>
<path d="M122.051 115.869C120.817 117.327 120.867 119.149 121.92 120.461L122.788 119.435C122.149 118.536 122.264 117.447 123.017 116.557C124.031 115.358 125.511 115.314 126.742 116.29L126.829 116.363L122.688 121.257C122.826 121.395 122.964 121.532 123.1 121.647C125.01 123.174 127.119 122.962 128.625 121.183C130.131 119.403 129.844 117.085 127.926 115.467C125.996 113.838 123.651 113.978 122.051 115.869ZM127.618 117.135C128.561 118.1 128.508 119.516 127.724 120.443C126.835 121.494 125.601 121.724 124.429 120.904L127.618 117.135Z" fill="white"/>
<path d="M114.239 123.403C112.766 124.619 112.491 126.42 113.294 127.899L114.331 127.043C113.862 126.045 114.169 124.994 115.068 124.252C116.279 123.253 117.743 123.472 118.781 124.651L118.853 124.738L113.909 128.819C114.02 128.979 114.131 129.139 114.245 129.276C115.853 131.118 117.966 131.285 119.764 129.801C121.563 128.317 121.692 125.985 120.092 124.052C118.482 122.106 116.15 121.827 114.239 123.403ZM119.493 125.638C120.25 126.756 119.945 128.14 119.009 128.913C117.947 129.789 116.692 129.796 115.684 128.781L119.493 125.638Z" fill="white"/>
<path d="M109.021 129.824C108.272 128.575 107.427 128.269 106.066 129.083L104.829 129.823L105.454 130.864L106.579 130.191C107.191 129.825 107.532 129.923 107.89 130.52L110.398 134.698L108.564 135.795L109.189 136.836L111.023 135.739L112.214 137.724L113.353 137.043L112.162 135.058L113.44 134.293L112.815 133.252L111.537 134.016L109.021 129.824Z" fill="white"/>
<path d="M89.896 141.087C89.6547 139.781 88.5624 139.127 87.2727 139.365C85.9672 139.605 85.1809 140.606 85.4222 141.912C85.6635 143.217 86.7559 143.872 88.0614 143.631C89.351 143.393 90.1374 142.392 89.896 141.087Z" fill="white"/>
</svg>
