<svg width="182" height="22" viewBox="0 0 182 22" fill="none" xmlns="http://www.w3.org/2000/svg">
<g clip-path="url(#clip0_319_2172)">
<path d="M49.7468 21.7154C48.6758 21.7154 48.0537 21.0347 47.8451 20.2964L41.9599 1.70003C41.9316 1.61537 41.9316 1.50022 41.9316 1.41555C41.9316 0.792397 42.5255 0.281006 43.0309 0.281006H47.3397C48.4107 0.281006 49.0328 0.961733 49.2413 1.70003L51.8252 13.0116L54.409 1.70003C54.6176 0.961733 55.2397 0.281006 56.3107 0.281006H60.6194C61.1249 0.281006 61.747 0.792397 61.747 1.41555C61.747 1.50022 61.7187 1.61537 61.6869 1.70003L55.8052 20.2964C55.5967 21.0347 54.9746 21.7154 53.9036 21.7154H49.7433H49.7468Z" fill="white"/>
<path d="M69.799 17.6345H78.3847C79.2153 17.6345 79.8692 18.2576 79.8692 19.0535V20.2998C79.8692 21.0923 79.2153 21.7188 78.3847 21.7188H64.1506C63.3199 21.7188 62.666 21.0957 62.666 20.2998V1.70003C62.666 0.907545 63.3199 0.281006 64.1506 0.281006H78.0842C78.9149 0.281006 79.5688 0.904159 79.5688 1.70003V2.94634C79.5688 3.73883 78.9149 4.36537 78.0842 4.36537H69.7954V9.49622H76.8683C77.699 9.49622 78.3529 10.1194 78.3529 10.9152V12.1615C78.3529 12.954 77.699 13.5806 76.8683 13.5806H69.7954V17.6345H69.799Z" fill="white"/>
<path d="M99.6878 21.7154H95.2306C93.8945 21.7154 93.3572 20.9229 92.8553 20.2964L89.2888 14.4002H88.2779V20.2964C88.2779 21.0889 87.6239 21.7154 86.7933 21.7154H82.633C81.8023 21.7154 81.1484 21.0923 81.1484 20.2964V1.70003C81.1484 0.907545 81.8023 0.281006 82.633 0.281006H90.3598C94.9655 0.281006 99.5711 2.60428 99.5711 7.33889C99.5711 10.116 97.9947 12.0735 95.7395 13.208L100.285 20.2964C100.462 20.5233 100.554 20.7502 100.554 20.9771C100.554 21.458 100.197 21.7154 99.6913 21.7154H99.6878ZM90.3562 10.3192C91.3954 10.3192 92.4346 9.72313 92.4346 8.47682V6.20773C92.4346 4.98852 91.3954 4.36537 90.3562 4.36537H88.2779V10.3192H90.3562Z" fill="white"/>
<path d="M100.582 6.15363C100.582 2.35376 105.008 0 109.408 0C113.809 0 118.234 1.95751 118.234 5.92672V6.01139C118.234 6.80388 117.581 7.43042 116.75 7.43042H112.59C111.759 7.43042 111.105 6.80727 111.105 6.01139V5.36115C111.105 4.51108 110.243 4.08436 109.412 4.08436C108.581 4.08436 107.719 4.70751 107.719 5.53048C107.719 8.53448 118.712 9.38454 118.712 15.6499C118.712 19.6462 114.106 22 109.472 22C104.838 22 100.232 19.8461 100.232 15.5077V15.423C100.232 14.6305 100.886 14.004 101.717 14.004H105.877C106.708 14.004 107.362 14.6272 107.362 15.423V16.0733C107.362 17.3196 108.401 17.9156 109.472 17.9156C110.543 17.9156 111.582 17.2925 111.582 16.3002C111.582 13.0117 100.589 12.1616 100.589 6.15025L100.582 6.15363Z" fill="white"/>
<path d="M125.095 0.284393C125.926 0.284393 126.58 0.907545 126.58 1.70342V20.2998C126.58 21.0923 125.926 21.7188 125.095 21.7188H120.935C120.104 21.7188 119.45 21.0957 119.45 20.2998V1.70003C119.45 0.907545 120.104 0.281006 120.935 0.281006H125.095V0.284393Z" fill="white"/>
<path d="M127.591 20.2998L135.94 4.36878H129.075C128.245 4.36878 127.591 3.74563 127.591 2.94976V1.70345C127.591 0.910963 128.245 0.284424 129.075 0.284424H138.852C138.941 0.284424 139.029 0.284424 139.121 0.311517C139.241 0.284424 139.358 0.284424 139.506 0.284424H143.666C144.2 0.284424 144.646 0.538426 144.646 1.07691C144.646 1.27673 144.585 1.50364 144.469 1.70006L136.12 17.6311H143.013C143.843 17.6311 144.497 18.2543 144.497 19.0501V20.2964C144.497 21.0889 143.843 21.7155 143.013 21.7155H133.236C133.147 21.7155 133.027 21.7155 132.939 21.6884C132.819 21.7155 132.702 21.7155 132.553 21.7155H128.393C127.859 21.7155 127.414 21.4615 127.414 20.923C127.414 20.7232 127.474 20.4962 127.591 20.2998Z" fill="white"/>
<path d="M152.581 17.6345H161.167C161.998 17.6345 162.651 18.2576 162.651 19.0535V20.2998C162.651 21.0923 161.998 21.7188 161.167 21.7188H146.933C146.102 21.7188 145.448 21.0957 145.448 20.2998V1.70003C145.448 0.907545 146.102 0.281006 146.933 0.281006H160.866C161.697 0.281006 162.351 0.904159 162.351 1.70003V2.94634C162.351 3.73883 161.697 4.36537 160.866 4.36537H152.578V9.49622H159.651C160.481 9.49622 161.135 10.1194 161.135 10.9152V12.1615C161.135 12.954 160.481 13.5806 159.651 13.5806H152.578V17.6345H152.581Z" fill="white"/>
<path d="M182 14.6575C182 19.3922 177.394 21.7154 172.788 21.7154H165.062C164.231 21.7154 163.577 21.0923 163.577 20.2964V1.70003C163.577 0.907545 164.231 0.281006 165.062 0.281006H172.788C177.394 0.281006 182 2.60428 182 7.33889V14.6542V14.6575ZM174.87 6.20773C174.87 4.98852 173.831 4.36537 172.792 4.36537H170.714V17.6345H172.792C173.831 17.6345 174.87 17.0384 174.87 15.7921V6.21112V6.20773Z" fill="white"/>
<path d="M32.9926 0.284424H32.9466H8.9321C4.45721 0.297971 0 2.56367 0 7.15942V14.8405C0 19.443 4.47135 21.7087 8.94978 21.7155H32.9749C37.4463 21.6985 41.9035 19.4328 41.9035 14.8405V7.15942C41.9035 2.57045 37.4569 0.304744 32.9926 0.284424ZM13.2303 16.7506C12.2193 16.7506 10.862 15.8091 10.862 14.6237V7.37956C10.862 6.16373 12.2158 5.25271 13.2303 5.25271H28.6767C29.6912 5.25271 31.0485 6.19421 31.0485 7.37956V14.6237C31.0485 15.8429 29.6912 16.7506 28.6767 16.7506H13.2338H13.2303Z" fill="white"/>
<path d="M10.3066 14.6034L30.2492 4.0437L31.5995 7.39653L11.6533 17.9563L10.3066 14.6034Z" fill="white"/>
</g>
<defs>
<clipPath id="clip0_319_2172">
<rect width="182" height="22" fill="white"/>
</clipPath>
</defs>
</svg>
