<svg width="118" height="80" viewBox="0 0 118 80" fill="none" xmlns="http://www.w3.org/2000/svg">
<path fill-rule="evenodd" clip-rule="evenodd" d="M59.0783 4.61357C59.2061 4.57675 59.334 4.53992 59.4644 4.5031L59.467 4.50573C69.7757 3.37734 82.0411 5.43948 82.0411 5.43948L78.965 0.00268555C91.7888 9.6111 102.337 23.8041 104.858 32.9338C103.652 33.6124 94.7319 38.489 85.7226 40.2486C88.6761 37.4474 90.7843 35.0564 91.5696 34.1358L94.4892 30.7191L91.8723 27.0025C86.8497 19.8613 76.0897 12.0257 63.7956 6.55735C62.4232 5.94449 60.8342 5.27903 59.0783 4.61357ZM35.8206 19.4247C35.9276 19.3458 36.0371 19.2669 36.1467 19.188C45.4143 14.556 57.5911 12.2545 57.5911 12.2545L52.8738 8.19074C68.1215 12.8148 82.7925 22.5521 88.2352 30.293C87.3376 31.3504 80.6348 39.0387 72.797 43.8179C74.6156 40.1539 75.7792 37.1659 76.2045 36.027L77.783 31.7949L74.0781 29.1935C66.9656 24.1934 54.2488 20.5268 40.8927 19.6246C39.4003 19.5246 37.6887 19.4457 35.8206 19.4247ZM19.284 41.1166C19.2083 41.2297 19.1327 41.3428 19.0596 41.4533C20.8155 40.8246 22.4436 40.3065 23.8734 39.8856C36.679 36.1138 49.8211 35.1695 58.1677 37.4211L62.5145 38.5915L62.4675 43.1314C62.4545 44.3545 62.3762 47.5739 61.9118 51.6614C67.6336 44.4386 71.3072 34.8644 71.7925 33.5545C64.0826 28.1362 47.0607 24.0303 31.2259 24.9483L37.013 27.1472C37.013 27.1472 26.3938 33.5335 19.284 41.114V41.1166ZM11.5532 56.3144C18.0212 56.3144 23.1351 61.6223 23.1351 68.1427C23.1351 74.6632 18.0212 79.9422 11.5532 79.9422C5.08517 79.9422 0 74.6632 0 68.1427C0 61.6223 5.08517 56.3144 11.5532 56.3144ZM11.5532 76.1809C15.9756 76.1809 19.4066 72.3906 19.4066 68.1427C19.4066 63.6844 15.9756 60.0441 11.5532 60.0441C7.13072 60.0441 3.73104 63.6844 3.73104 68.1427C3.73104 72.6011 7.13072 76.1809 11.5532 76.1809ZM39.9273 80L35.9562 70.9019L31.9539 80L22.2349 56.7668H26.0259L31.9539 70.8703L34.0307 66.291L30.331 56.7668H34.122L39.9273 70.8993L45.7039 56.7668H49.675L39.9273 80ZM51.1778 79.5161H65.9481V75.8468H54.8776V56.7694H51.1778V79.5161ZM71.7873 56.7668V79.5134H68.0875V56.7668H71.7873ZM97.5393 68.1427C97.5393 61.6223 92.4254 56.3144 85.9574 56.3144C79.4894 56.3144 74.4042 61.6196 74.4042 68.1427C74.4042 74.6658 79.4894 79.9422 85.9574 79.9422C92.4254 79.9422 97.5393 74.6632 97.5393 68.1427ZM93.8109 68.1427C93.8109 72.3906 90.3799 76.1809 85.9574 76.1809C81.535 76.1809 78.1353 72.6011 78.1353 68.1427C78.1353 63.6844 81.535 60.0441 85.9574 60.0441C90.3799 60.0441 93.8109 63.6844 93.8109 68.1427ZM100.159 79.5161V56.3144L114.329 70.965V56.7694H118V79.9711L103.83 65.352V79.5161H100.159Z" fill="white"/>
</svg>
