<svg width="170" height="42" viewBox="0 0 170 42" fill="none" xmlns="http://www.w3.org/2000/svg">
<g clip-path="url(#clip0_319_2158)">
<path fill-rule="evenodd" clip-rule="evenodd" d="M162.414 18.3593L159.131 22.2524V11.4224H154.355V35.0643H159.131V22.2524H165.224V35.0643H170V18.3593H162.414ZM43.5276 22.9676C43.5276 21.7022 44.8446 21.1494 46.2281 21.1494C47.9429 21.1494 49.3597 21.7336 49.3597 24.1333H54.0024C53.9663 19.9837 51.069 17.8734 46.4568 17.8734C41.2555 17.8734 38.9155 20.2758 38.9155 22.868C38.8971 26.9794 42.5212 27.6447 45.5952 28.2091C47.8548 28.624 49.8172 28.9842 49.8172 30.6185C49.8172 31.7883 48.5002 32.2742 46.9878 32.2742C44.8113 32.2742 43.1991 31.2013 43.1991 29.0596H38.5869C38.5869 33.4386 42.079 35.5503 46.723 35.5503C51.3671 35.5503 54.464 33.8945 54.428 30.456C54.4092 26.43 50.6362 25.7058 47.5349 25.1105C45.3672 24.6943 43.5276 24.3412 43.5276 22.9676ZM77.6246 18.3593H72.8489V35.0643H77.6246V18.3593ZM84.3703 22.2523L87.653 18.3593H91.6136V22.2523H84.3703ZM84.3703 18.3593V22.2523V35.0643H79.5932V18.3593H84.3703ZM93.352 18.3593V35.0643H98.1292V22.2523H103.233V35.0643H108.009V18.3593H101.412L98.1292 22.2523V18.3593H93.352ZM111.325 18.3593L108.042 22.2523H113.147V35.0643H117.924V18.3593H111.325ZM128.045 29.0596L123.698 18.3579H118.693L125.576 35.0629V41.9999H130.352V35.0629L128.045 29.0596ZM128.045 29.0596L132.673 29.0596L136.806 18.3579H132.194L128.045 29.0596ZM144.233 21.1494C142.848 21.1494 141.531 21.7022 141.531 22.9676C141.531 24.3412 143.371 24.6943 145.538 25.1105C148.64 25.7058 152.413 26.4301 152.433 30.456C152.465 33.8945 149.37 35.5503 144.726 35.5503C140.082 35.5503 136.59 33.4386 136.59 29.0596H141.202C141.202 31.2013 142.816 32.2742 144.987 32.2742C146.504 32.2742 147.821 31.7883 147.821 30.6185C147.821 28.9842 145.858 28.624 143.599 28.2091C140.525 27.6447 136.902 26.9794 136.92 22.868C136.92 20.2758 139.256 17.8734 144.462 17.8734C149.072 17.8734 151.971 19.9837 152.003 24.1333H147.359C147.359 21.7336 145.942 21.1494 144.233 21.1494ZM70.9164 35.063V29.9633L60.8492 22.2524V11.4224H56.0735V35.0643H60.8492V27.3834L70.9164 35.063ZM64.1333 18.3593L60.8492 22.2523H70.9164V18.3593H64.1333ZM72.8489 11.4224H77.6246V15.3154H72.8489V11.4224Z" fill="white"/>
<path d="M25.2803 5.45731L18.6705 0L0 22.2592H11.1942L25.2789 5.45868L25.2803 5.45731ZM6.69298 35.1545L13.3028 40.6118L31.9733 18.3526H20.779L6.69437 35.1531L6.69298 35.1545Z" fill="white"/>
</g>
<defs>
<clipPath id="clip0_319_2158">
<rect width="170" height="42" fill="white"/>
</clipPath>
</defs>
</svg>
