<svg width="100" height="134" viewBox="0 0 100 134" fill="none" xmlns="http://www.w3.org/2000/svg">
<g clip-path="url(#clip0_319_2249)">
<path d="M49.6268 33.8649C58.9783 33.8649 66.5592 26.284 66.5592 16.9324C66.5592 7.58091 58.9783 0 49.6268 0C40.2753 0 32.6943 7.58091 32.6943 16.9324C32.6943 26.284 40.2753 33.8649 49.6268 33.8649Z" fill="white"/>
<path d="M16.9324 90.9481C26.284 90.9481 33.8649 83.3672 33.8649 74.0157C33.8649 64.6642 26.284 57.0833 16.9324 57.0833C7.58091 57.0833 0 64.6642 0 74.0157C0 83.3672 7.58091 90.9481 16.9324 90.9481Z" fill="white"/>
<path d="M82.3026 90.9481C91.6541 90.9481 99.235 83.3672 99.235 74.0157C99.235 64.6642 91.6541 57.0833 82.3026 57.0833C72.951 57.0833 65.3701 64.6642 65.3701 74.0157C65.3701 83.3672 72.951 90.9481 82.3026 90.9481Z" fill="white"/>
<path d="M31.4303 65.2382C32.3175 45.2666 49.6275 33.8462 49.6275 33.8462L35.8474 26.7485C35.8474 26.7485 36.1683 45.1345 18.5752 57.1401L31.4303 65.2382Z" fill="white"/>
<path d="M67.6165 65.5777C68.5981 46.4178 49.627 33.8458 49.627 33.8458L63.8412 26.1252C63.8412 26.1252 61.1984 42.6046 80.4149 57.1775L67.6165 65.5777Z" fill="white"/>
<path d="M67.0124 81.2644C48.0979 70.1649 32.2414 81.2644 32.2414 81.2644L31.4297 65.238C31.4297 65.238 46.9653 75.9223 67.6164 65.5778L67.0124 81.2644Z" fill="white"/>
<path d="M17.2158 107.522V109.863H10.5523V128.135H7.75854V109.863H1.07617V107.522H17.2158Z" fill="white"/>
<path d="M17.4424 128.135V113.563H18.9148C19.1979 113.563 19.3867 113.619 19.4999 113.732C19.5943 113.846 19.6698 114.016 19.7076 114.28L19.8775 116.545C20.3872 115.526 20.9912 114.733 21.7274 114.167C22.4636 113.6 23.3319 113.317 24.3135 113.317C24.7099 113.317 25.0875 113.355 25.4084 113.449C25.7482 113.544 26.0313 113.676 26.3145 113.827L25.9747 115.752C25.8992 115.998 25.767 116.111 25.5216 116.111C25.3895 116.111 25.1818 116.073 24.8987 115.979C24.6155 115.884 24.2191 115.847 23.7283 115.847C22.8411 115.847 22.0861 116.111 21.482 116.621C20.878 117.13 20.3872 117.885 19.9719 118.886V128.173L17.4424 128.135Z" fill="white"/>
<path d="M34.9411 113.336C35.9982 113.336 36.9609 113.506 37.8293 113.864C38.6787 114.223 39.4149 114.714 40.019 115.375C40.623 116.035 41.0761 116.809 41.397 117.734C41.7179 118.659 41.8878 119.697 41.8878 120.83C41.8878 121.963 41.7179 123.02 41.397 123.945C41.0761 124.87 40.623 125.644 40.019 126.304C39.4149 126.965 38.6787 127.456 37.8293 127.814C36.9798 128.154 35.9982 128.343 34.9411 128.343C33.884 128.343 32.9213 128.173 32.053 127.814C31.2035 127.475 30.4673 126.965 29.8633 126.304C29.2592 125.644 28.7873 124.87 28.4664 123.945C28.1266 123.02 27.9756 121.981 27.9756 120.83C27.9756 119.679 28.1455 118.659 28.4664 117.734C28.7873 116.809 29.2592 116.016 29.8633 115.375C30.4673 114.714 31.2035 114.223 32.053 113.864C32.9213 113.506 33.884 113.336 34.9411 113.336ZM34.9411 126.342C36.3757 126.342 37.4517 125.851 38.169 124.907C38.8863 123.945 39.2261 122.604 39.2261 120.868C39.2261 119.131 38.8675 117.772 38.169 116.809C37.4517 115.847 36.3946 115.356 34.9411 115.356C34.2049 115.356 33.582 115.488 33.0346 115.733C32.506 115.979 32.053 116.337 31.6943 116.809C31.3356 117.281 31.0714 117.866 30.8826 118.546C30.7127 119.225 30.6183 119.999 30.6183 120.868C30.6183 121.736 30.6938 122.51 30.8826 123.19C31.0714 123.869 31.3356 124.454 31.6943 124.907C32.053 125.379 32.506 125.738 33.0346 125.983C33.582 126.21 34.2049 126.342 34.9411 126.342Z" fill="white"/>
<path d="M50.9489 113.336C52.006 113.336 52.9687 113.506 53.8371 113.864C54.6865 114.223 55.4227 114.714 56.0268 115.375C56.6308 116.035 57.0839 116.809 57.4048 117.734C57.7257 118.659 57.8956 119.697 57.8956 120.83C57.8956 121.963 57.7257 123.02 57.4048 123.945C57.0839 124.87 56.6308 125.644 56.0268 126.304C55.4227 126.965 54.6865 127.456 53.8371 127.814C52.9876 128.154 52.006 128.343 50.9489 128.343C49.8918 128.343 48.9291 128.173 48.0608 127.814C47.2113 127.475 46.4751 126.965 45.8711 126.304C45.267 125.644 44.7951 124.87 44.4742 123.945C44.1344 123.02 43.9834 121.981 43.9834 120.83C43.9834 119.679 44.1533 118.659 44.4742 117.734C44.7951 116.809 45.267 116.016 45.8711 115.375C46.4751 114.714 47.2113 114.223 48.0608 113.864C48.9102 113.506 49.8729 113.336 50.9489 113.336ZM50.9489 126.342C52.3836 126.342 53.4595 125.851 54.1768 124.907C54.8942 123.945 55.2339 122.604 55.2339 120.868C55.2339 119.131 54.8753 117.772 54.1768 116.809C53.4595 115.847 52.4024 115.356 50.9489 115.356C50.2127 115.356 49.5898 115.488 49.0424 115.733C48.5138 115.979 48.0608 116.337 47.7021 116.809C47.3435 117.281 47.0792 117.866 46.8904 118.546C46.7205 119.225 46.6261 119.999 46.6261 120.868C46.6261 121.736 46.7016 122.51 46.8904 123.19C47.0603 123.869 47.3435 124.454 47.7021 124.907C48.0608 125.379 48.5138 125.738 49.0424 125.983C49.5898 126.21 50.2127 126.342 50.9489 126.342Z" fill="white"/>
<path d="M61.0479 133.081V113.562H62.5769C62.9355 113.562 63.1621 113.732 63.2564 114.091L63.483 115.809C64.1059 115.054 64.8232 114.45 65.616 113.978C66.4277 113.525 67.3338 113.298 68.3909 113.298C69.2215 113.298 69.9954 113.468 70.6561 113.789C71.3357 114.11 71.9209 114.582 72.3928 115.224C72.8836 115.846 73.2422 116.639 73.5065 117.564C73.7708 118.489 73.9029 119.565 73.9029 120.773C73.9029 121.849 73.7519 122.85 73.4688 123.775C73.1856 124.7 72.7703 125.511 72.2229 126.172C71.6943 126.852 71.0337 127.38 70.2408 127.777C69.4669 128.173 68.5797 128.362 67.5981 128.362C66.692 128.362 65.9181 128.211 65.2951 127.909C64.6533 127.607 64.087 127.191 63.6151 126.644V133.1L61.0479 133.081ZM67.5415 115.375C66.7109 115.375 65.9747 115.563 65.3518 115.96C64.7288 116.356 64.1436 116.885 63.6151 117.583V124.643C64.087 125.285 64.5967 125.719 65.163 125.983C65.7293 126.248 66.3522 126.38 67.0318 126.38C68.372 126.38 69.4291 125.889 70.1464 124.926C70.8826 123.963 71.2413 122.567 71.2413 120.792C71.2413 119.848 71.1658 119.037 70.9959 118.357C70.826 117.677 70.5806 117.111 70.2597 116.677C69.9388 116.243 69.5613 115.922 69.0893 115.714C68.6363 115.469 68.1266 115.375 67.5415 115.375Z" fill="white"/>
<path d="M79.7733 106.937V128.135H77.2061V106.937H79.7733Z" fill="white"/>
<path d="M90.0795 113.336C90.9478 113.336 91.7595 113.487 92.4957 113.77C93.2319 114.072 93.8737 114.487 94.4211 115.035C94.9686 115.582 95.3839 116.262 95.6859 117.074C95.9879 117.885 96.1389 118.81 96.1389 119.848C96.1389 120.245 96.1012 120.528 96.0068 120.66C95.9313 120.792 95.7614 120.868 95.516 120.868H85.8133C85.8322 121.793 85.9644 122.586 86.1909 123.265C86.4174 123.945 86.7383 124.511 87.1347 124.964C87.55 125.417 88.0219 125.757 88.5694 125.983C89.1357 126.21 89.7397 126.323 90.4382 126.323C91.08 126.323 91.6274 126.248 92.0993 126.097C92.5712 125.946 92.9676 125.795 93.3074 125.606C93.6472 125.436 93.9304 125.266 94.138 125.115C94.3645 124.964 94.5533 124.889 94.7232 124.889C94.9308 124.889 95.1007 124.964 95.214 125.134L95.9313 126.059C95.6104 126.436 95.2328 126.776 94.7987 127.059C94.3645 127.342 93.8737 127.569 93.3829 127.758C92.8733 127.947 92.3636 128.079 91.8162 128.173C91.2876 128.267 90.7402 128.305 90.2116 128.305C89.2112 128.305 88.2862 128.135 87.4367 127.796C86.5873 127.456 85.8511 126.965 85.247 126.304C84.6241 125.644 84.1522 124.832 83.8124 123.869C83.4726 122.906 83.3027 121.793 83.3027 120.528C83.3027 119.509 83.4537 118.565 83.7747 117.678C84.0956 116.79 84.5297 116.035 85.1149 115.375C85.7001 114.733 86.4174 114.223 87.2669 113.846C88.0597 113.525 89.0035 113.336 90.0795 113.336ZM90.1172 115.205C88.8714 115.205 87.9087 115.563 87.1913 116.281C86.4929 116.998 86.0399 117.98 85.87 119.244H93.7982C93.7982 118.659 93.7227 118.112 93.5528 117.621C93.3829 117.13 93.1375 116.696 92.8355 116.337C92.5146 115.979 92.1371 115.696 91.6651 115.507C91.231 115.318 90.7024 115.205 90.1172 115.205Z" fill="white"/>
</g>
<defs>
<clipPath id="clip0_319_2249">
<rect width="99.2351" height="133.1" fill="white"/>
</clipPath>
</defs>
</svg>
