<svg width="200" height="50" viewBox="0 0 200 50" fill="none" xmlns="http://www.w3.org/2000/svg">
<g clip-path="url(#clip0_304_641)">
<path fill-rule="evenodd" clip-rule="evenodd" d="M161.493 1.77716C161.493 2.75865 160.689 3.55431 159.697 3.55431C158.706 3.55431 157.902 2.75865 157.902 1.77716C157.902 0.79566 158.706 0 159.697 0C160.689 0 161.493 0.79566 161.493 1.77716ZM52.0046 0.0684591H49.0589V23.5338H52.0046V0.0684591ZM68.8716 14.1859V23.5338H71.6501V14.0119C71.6501 8.34665 68.569 6.23574 64.6721 6.23574C61.7582 6.23574 59.9971 7.44238 58.9826 8.75171L58.6108 6.43827H56.207V23.5366H58.9826V14.9875C58.9826 11.1336 60.9483 8.75457 64.1995 8.75457C67.2143 8.75457 68.8716 10.6316 68.8716 14.1859ZM87.8715 23.5338V14.1802L87.8743 14.1859C87.8743 10.6316 86.217 8.75457 83.2022 8.75457C79.951 8.75457 77.9853 11.1336 77.9853 14.9875V23.5366H75.2068V6.43827H77.6106L77.9824 8.75171C78.997 7.44238 80.758 6.23574 83.672 6.23574C87.5688 6.23574 90.65 8.34665 90.65 14.0119V23.5338H87.8715ZM101.957 6.23574C96.9102 6.23574 93.3881 9.79005 93.3881 14.9846C93.3881 20.1791 96.9102 23.7335 101.957 23.7335C107.004 23.7335 110.526 20.1791 110.526 14.9846C110.526 9.79005 107.004 6.23574 101.957 6.23574ZM101.957 21.2859C98.5358 21.2859 96.2329 18.6388 96.2329 14.9846C96.2329 11.3304 98.5358 8.68325 101.957 8.68325C105.378 8.68325 107.681 11.3304 107.681 14.9846C107.681 18.6388 105.378 21.2859 101.957 21.2859ZM114.215 6.43542L119.432 20.4131L124.614 6.43542H127.526L121.058 23.5338H117.706L111.235 6.43542H114.215ZM142.937 19.8768V12.403C142.937 8.41511 140.398 6.23574 135.994 6.23574C131.829 6.23574 129.085 8.21258 128.678 11.5644H131.457C131.797 9.82143 133.423 8.6804 135.861 8.6804C138.57 8.6804 140.161 10.0211 140.161 12.2347V13.4071H135.08C130.54 13.4071 128.137 15.3183 128.137 18.7357C128.137 21.8536 130.71 23.7306 134.504 23.7306C137.484 23.7306 139.21 22.4241 140.294 20.8809C140.329 22.5582 141.107 23.5281 143.41 23.5281H144.934V21.0149H144.055C143.277 21.0149 142.937 20.781 142.937 19.8768ZM140.156 16.5592C140.156 19.4089 138.158 21.3858 134.702 21.3858C132.399 21.3858 130.944 20.2448 130.944 18.5703C130.944 16.6277 132.333 15.7206 134.806 15.7206H140.159V16.5592H140.156ZM151.131 8.95139V19.041C151.131 20.4815 151.639 21.0178 153.129 21.0178H155.873V23.5309H152.858C149.54 23.5309 148.353 22.0904 148.353 19.0723V8.94854H145.237V6.43542H148.353V1.64309H151.131V6.43827H155.602V8.95139H151.131ZM161.052 6.43542H158.276V23.5309H161.052V6.43542ZM172.803 6.23574C167.756 6.23574 164.234 9.79005 164.234 14.9846C164.234 20.1791 167.756 23.7335 172.803 23.7335C177.85 23.7335 181.372 20.1791 181.372 14.9846C181.372 9.79005 177.85 6.23574 172.803 6.23574ZM178.527 14.9846C178.527 18.6388 176.224 21.2859 172.803 21.2859C169.382 21.2859 167.079 18.6388 167.079 14.9846C167.079 11.3304 169.382 8.68325 172.803 8.68325C176.224 8.68325 178.527 11.3304 178.527 14.9846ZM193.022 6.23574C196.916 6.23574 199.997 8.34665 199.997 14.0119L200 14.0176V23.5395H197.221V14.1859C197.221 10.6316 195.561 8.75457 192.546 8.75457C189.295 8.75457 187.33 11.1336 187.33 14.9875V23.5366H184.554V6.43827H186.958L187.33 8.75171C188.347 7.44238 190.108 6.23574 193.022 6.23574ZM52.0046 26.3322H49.0589V49.7975H62.8102V47.116H52.0046V26.3322ZM79.167 38.6667V46.1433L79.1641 46.1376C79.1641 47.0447 79.5042 47.2786 80.2824 47.2786H81.1644V49.7918H79.6397C77.3368 49.7918 76.5586 48.8219 76.524 47.1446C75.4402 48.6878 73.7138 49.9943 70.7306 49.9943C66.9376 49.9943 64.3637 48.1173 64.3637 44.9994C64.3637 41.582 66.7675 39.6708 71.3071 39.6708H76.3885V38.4984C76.3885 36.2848 74.7946 34.9441 72.0853 34.9441C69.6498 34.9441 68.0213 36.0851 67.6841 37.828H64.9085C65.3149 34.4763 68.0588 32.4994 72.2236 32.4994C76.6277 32.4994 79.167 34.6788 79.167 38.6667ZM70.9353 47.6495C74.3911 47.6495 76.3885 45.6726 76.3885 42.8229H76.3914V41.9843H71.039C68.5661 41.9843 67.1768 42.8914 67.1768 44.834C67.1768 46.5084 68.6324 47.6495 70.9353 47.6495ZM92.0017 32.4994C89.6498 32.4338 87.4218 33.5406 86.0758 35.449V26.3322H83.2973V49.7975H85.704L86.0758 47.1816C87.1249 48.8247 89.0907 49.9971 92.0017 49.9971C96.7776 49.9971 100.3 46.4771 100.3 41.2483C100.3 35.6829 96.7776 32.4994 92.0017 32.4994ZM91.7308 47.5496C88.3441 47.5496 86.0412 44.9338 86.0412 41.1798C86.0412 37.4258 88.3441 34.9469 91.7308 34.9469C95.1175 34.9469 97.455 37.5285 97.455 41.2483C97.455 44.9681 95.152 47.5496 91.7308 47.5496ZM0 11.359L8.45078 16.7475C9.98703 17.7259 10.9151 19.4118 10.9151 21.2203L10.9094 49.7975H20.4986V24.4352L20.5044 13.1475L0 0.0684591V11.3561V11.359ZM32.3303 28.6456L32.3361 0.0684591H22.7468V24.3154L22.741 36.7212L43.2454 49.7946V38.507L34.7946 33.1184C33.2584 32.14 32.3303 30.4541 32.3303 28.6456Z" fill="white"/>
</g>
<defs>
<clipPath id="clip0_304_641">
<rect width="200" height="50" fill="white"/>
</clipPath>
</defs>
</svg>
